<?xml version="1.0" encoding="UTF-8"?>
<!DOCTYPE svg PUBLIC "-//W3C//DTD SVG 1.1//EN" "http://www.w3.org/Graphics/SVG/1.1/DTD/svg11.dtd">
<svg version="1.1" xmlns="http://www.w3.org/2000/svg" xmlns:xlink="http://www.w3.org/1999/xlink" x="0" y="0" width="761.344" height="228.557" viewBox="0, 0, 761.344, 228.557">
  <g id="Layer_1">
    <path d="M0.661,229.461 L0.786,229.013 L1.028,228.145 L1.261,227.314 L1.484,226.518 L1.699,225.757 L1.906,225.028 L2.104,224.332 L2.294,223.665 L2.565,222.719 L2.9,221.552 L3.206,220.483 L3.486,219.502 L3.742,218.599 L3.974,217.762 L4.186,216.982 L4.378,216.249 L4.635,215.213 L4.927,213.9 L5.174,212.586 L5.339,211.551 L5.443,210.818 L5.543,210.041 L5.641,209.208 L5.741,208.309 L5.842,207.334 L5.947,206.273 L6.058,205.115 L6.177,203.849 L6.305,202.467 L6.409,201.346 L6.482,200.557 L6.558,199.733 L6.637,198.872 L6.721,197.974 L6.808,197.036 L6.9,196.058 L6.996,195.037 L7.045,194.511 L7.045,194.511 C7.045,194.511 7.045,194.511 7.045,194.51 L7.045,194.51 L7.727,187.227 L9.048,172.638 L10.309,158.018 L11.508,143.367 L12.643,128.687 L13.716,113.985 L14.728,99.268 L15.68,84.544 L16.133,77.178 L16.133,77.178 C16.133,77.176 16.133,77.175 16.133,77.174 L16.133,77.174 L16.434,71.985 L16.995,61.605 L17.579,51.235 L18.09,43.467 L18.486,38.29 L18.706,35.704 L18.706,35.708 L18.725,35.492 L18.768,35.026 L18.817,34.517 L18.87,33.967 L18.958,33.078 L19.085,31.799 L19.217,30.448 L19.348,29.062 L19.472,27.681 L19.583,26.343 L19.673,25.083 L19.725,24.209 L19.75,23.666 L19.766,23.164 L19.773,22.701 L19.769,22.276 L19.752,21.879 L19.716,21.469 L19.614,20.851 L19.077,19.09 L18.374,17.892 L18.157,17.866 L18.021,18.003 L17.891,18.227 L17.752,18.54 L17.676,18.735 L17.676,18.735 C17.674,18.739 17.673,18.742 17.672,18.746 L17.672,18.746 L17.563,19.061 L17.356,19.803 L17.173,20.67 L17.015,21.651 L16.883,22.74 L16.775,23.934 L16.691,25.227 L16.63,26.615 L16.592,28.095 L16.576,29.661 L16.581,31.309 L16.608,33.036 L16.656,34.836 L16.725,36.706 L16.813,38.642 L16.922,40.639 L17.049,42.693 L17.196,44.799 L17.362,46.954 L17.546,49.153 L17.748,51.392 L17.968,53.667 L18.205,55.974 L18.458,58.307 L18.87,61.845 L19.474,66.617 L20.14,71.429 L20.866,76.239 L21.648,81.017 L22.272,84.569 L22.706,86.915 L23.151,89.226 L23.609,91.508 L24.081,93.757 L24.565,95.97 L25.062,98.144 L25.572,100.275 L26.096,102.362 L26.633,104.402 L27.186,106.392 L27.753,108.33 L28.337,110.214 L28.938,112.039 L29.557,113.801 L30.193,115.492 L30.845,117.101 L31.51,118.615 L32.184,120.017 L32.863,121.294 L33.541,122.434 L34.215,123.431 L34.884,124.281 L35.546,124.985 L36.204,125.542 L36.857,125.953 L37.506,126.219 L38.153,126.337 L38.797,126.306 L39.282,126.184 L39.604,126.053 L39.767,125.973 L39.767,125.973 C39.768,125.973 39.769,125.972 39.77,125.971 L39.77,125.971 L40.261,125.697 L41.224,125.063 L42.159,124.319 L43.064,123.469 L43.94,122.518 L44.789,121.468 L45.611,120.323 L46.406,119.086 L47.177,117.76 L47.923,116.349 L48.645,114.856 L49.344,113.283 L50.021,111.635 L50.678,109.915 L51.313,108.126 L51.93,106.27 L52.527,104.353 L53.107,102.375 L53.67,100.342 L54.216,98.256 L54.747,96.12 L55.263,93.938 L55.766,91.713 L56.256,89.448 L56.733,87.147 L57.199,84.812 L57.879,81.255 L58.753,76.425 L59.596,71.519 L60.416,66.564 L61.217,61.585 L62.007,56.609 L62.792,51.661 L63.579,46.767 L64.374,41.953 L64.979,38.411 L65.388,36.089 L65.803,33.801 L66.224,31.55 L66.653,29.341 L67.089,27.176 L67.535,25.058 L67.99,22.99 L68.455,20.977 L68.932,19.021 L69.42,17.125 L69.922,15.294 L70.437,13.529 L70.966,11.834 L71.511,10.212 L72.071,8.666 L72.649,7.201 L73.243,5.818 L73.856,4.52 L74.488,3.313 L74.81,2.745 L74.808,2.749 L74.861,2.662 L74.95,2.532 L75.021,2.454 L75.072,2.423 L75.089,2.432 L75.018,2.419 L74.542,1.667 L73.949,-0.116 L73.875,-0.524 L73.869,-0.52 L73.86,-0.298 L73.825,0.145 L73.765,0.69 L73.687,1.308 L73.594,1.974 L73.442,3.016 L73.291,4.048 L73.198,4.701 L73.12,5.304 L73.06,5.841 L73.038,6.09 L73.038,6.09 C73.037,6.095 73.037,6.1 73.037,6.105 L73.037,6.105 L72.871,8.379 L72.587,12.941 L72.336,17.503 L72.078,22.054 L71.934,24.321 L71.935,24.313 L71.572,29.411 L70.99,37.05 L70.626,42.149 L70.464,44.705 L70.464,44.705 C70.464,44.708 70.464,44.712 70.463,44.715 L70.463,44.715 L70.347,46.805 L70.153,51 L69.903,57.285 L69.719,61.463 L69.72,61.457 L69.662,62.621 L69.552,64.866 L69.444,66.999 L69.341,69.027 L69.242,70.951 L69.147,72.778 L69.056,74.509 L68.97,76.149 L68.887,77.701 L68.808,79.168 L68.733,80.555 L68.661,81.864 L68.593,83.1 L68.529,84.266 L68.468,85.366 L68.41,86.403 L68.355,87.38 L68.303,88.301 L68.254,89.169 L68.208,89.99 L68.165,90.765 L68.125,91.5 L68.069,92.532 L68.004,93.797 L67.949,94.963 L67.902,96.058 L67.863,97.111 L67.819,98.669 L67.79,100.291 L67.777,101.456 L67.768,102.715 L67.765,103.741 L67.763,104.469 L67.763,105.237 L67.762,106.049 L67.762,106.907 L67.763,107.817 L67.763,108.78 L67.765,109.803 L67.766,110.887 L67.767,112.036 L67.768,113.255 L67.769,114.546 L67.77,115.913 L67.771,117.36 L67.771,118.89 L67.77,120.505 L67.768,122.21 L67.765,124.009 L67.761,125.905 L67.757,127.903 L67.751,130.004 L67.743,132.211 L67.739,133.356 L67.739,133.356 C67.739,133.358 67.739,133.359 67.739,133.361 L67.739,133.361 L67.727,138.751 L67.778,149.531 L67.946,160.337 L68.259,171.212 L68.687,182.088 L69.244,192.988 L69.748,201.18 L70.127,206.651 L70.541,212.127 L70.991,217.613 L71.23,220.365 L71.23,220.365 C71.289,221.083 71.656,222.29 72.05,223.059 C72.443,223.828 72.713,223.869 72.654,223.15 C72.654,223.15 72.654,223.15 72.654,223.15 L72.444,220.481 L72.052,215.141 L71.695,209.81 L71.373,204.489 L70.952,196.516 L70.498,185.885 L70.154,175.234 L69.914,164.558 L69.732,153.763 L69.616,142.866 L69.584,137.381 L69.584,137.385 L69.58,136.219 L69.57,133.972 L69.561,131.837 L69.552,129.809 L69.543,127.883 L69.533,126.056 L69.524,124.324 L69.514,122.685 L69.506,121.135 L69.498,119.671 L69.489,118.287 L69.481,116.98 L69.474,115.748 L69.466,114.585 L69.459,113.489 L69.453,112.455 L69.447,111.481 L69.442,110.563 L69.437,109.697 L69.433,108.88 L69.431,108.109 L69.429,107.38 L69.429,106.357 L69.432,105.103 L69.44,103.953 L69.463,102.348 L69.5,100.802 L69.534,99.757 L69.576,98.666 L69.626,97.5 L69.686,96.229 L69.737,95.191 L69.775,94.452 L69.815,93.67 L69.857,92.843 L69.903,91.967 L69.951,91.038 L70.003,90.054 L70.058,89.01 L70.116,87.903 L70.178,86.729 L70.242,85.485 L70.31,84.166 L70.382,82.769 L70.457,81.291 L70.535,79.729 L70.618,78.077 L70.703,76.334 L70.793,74.495 L70.887,72.557 L70.985,70.516 L71.086,68.368 L71.193,66.113 L71.249,64.943 L71.249,64.943 C71.249,64.941 71.249,64.939 71.249,64.937 L71.249,64.937 L71.426,60.731 L71.664,54.438 L71.85,50.25 L71.963,48.151 L71.962,48.161 L72.119,45.611 L72.473,40.503 L73.048,32.838 L73.407,27.729 L73.407,27.729 C73.407,27.726 73.407,27.723 73.408,27.72 L73.408,27.72 L73.55,25.433 L73.804,20.869 L74.051,16.314 L74.329,11.766 L74.492,9.487 L74.491,9.502 L74.509,9.294 L74.565,8.786 L74.641,8.197 L74.731,7.551 L74.882,6.516 L75.035,5.462 L75.129,4.778 L75.211,4.129 L75.275,3.526 L75.316,2.977 L75.326,2.583 L75.312,2.244 L75.213,1.555 L74.575,-0.444 L74.033,-1.341 L73.874,-1.426 L73.78,-1.408 L73.694,-1.345 L73.603,-1.241 L73.503,-1.096 L73.45,-1.008 L73.45,-1.008 C73.449,-1.007 73.449,-1.005 73.448,-1.004 L73.448,-1.004 L73.12,-0.424 L72.481,0.8 L71.861,2.113 L71.261,3.513 L70.679,4.994 L70.114,6.555 L69.566,8.193 L69.033,9.902 L68.515,11.681 L68.011,13.527 L67.52,15.435 L67.041,17.402 L66.574,19.427 L66.117,21.504 L65.67,23.631 L65.233,25.806 L64.803,28.024 L64.381,30.281 L63.965,32.576 L63.555,34.906 L62.95,38.456 L62.154,43.277 L61.368,48.175 L60.583,53.124 L59.794,58.098 L58.994,63.073 L58.176,68.021 L57.335,72.918 L56.464,77.737 L55.786,81.286 L55.322,83.613 L54.846,85.907 L54.359,88.163 L53.858,90.379 L53.344,92.551 L52.816,94.676 L52.273,96.752 L51.713,98.774 L51.137,100.739 L50.543,102.645 L49.931,104.488 L49.3,106.265 L48.649,107.972 L47.977,109.607 L47.284,111.167 L46.568,112.647 L45.83,114.046 L45.067,115.359 L44.28,116.583 L43.468,117.716 L42.629,118.755 L41.763,119.695 L40.87,120.534 L39.948,121.269 L38.995,121.897 L38.504,122.171 L38.507,122.17 L38.356,122.245 L38.052,122.369 L37.599,122.487 L36.997,122.52 L36.402,122.417 L35.816,122.185 L35.241,121.83 L34.677,121.362 L34.128,120.79 L33.593,120.123 L33.073,119.368 L32.567,118.533 L32.073,117.618 L31.586,116.622 L31.103,115.539 L30.62,114.362 L30.136,113.085 L29.648,111.706 L29.158,110.228 L28.667,108.653 L28.177,106.985 L27.689,105.232 L27.205,103.4 L26.726,101.495 L26.253,99.523 L25.787,97.489 L25.33,95.402 L24.882,93.264 L24.443,91.083 L24.015,88.862 L23.6,86.617 L22.997,83.19 L22.234,78.535 L21.524,73.832 L20.87,69.117 L20.275,64.421 L19.87,60.937 L19.62,58.644 L19.387,56.376 L19.171,54.14 L18.972,51.939 L18.791,49.777 L18.627,47.659 L18.483,45.589 L18.357,43.573 L18.25,41.614 L18.162,39.717 L18.095,37.886 L18.047,36.125 L18.021,34.44 L18.014,32.834 L18.03,31.312 L18.066,29.879 L18.124,28.538 L18.204,27.295 L18.306,26.153 L18.431,25.117 L18.577,24.191 L18.746,23.378 L18.94,22.677 L19.049,22.361 L19.045,22.372 L19.113,22.197 L19.234,21.92 L19.33,21.744 L19.387,21.66 L19.332,21.584 L18.761,20.498 L18.328,19 L18.305,18.787 L18.321,18.914 L18.334,19.177 L18.338,19.526 L18.333,19.94 L18.318,20.408 L18.295,20.921 L18.246,21.768 L18.158,23.008 L18.049,24.335 L17.927,25.709 L17.797,27.09 L17.665,28.44 L17.539,29.722 L17.451,30.614 L17.398,31.168 L17.349,31.684 L17.306,32.156 L17.286,32.372 L17.286,32.372 C17.286,32.374 17.286,32.375 17.286,32.376 L17.286,32.376 L17.066,34.982 L16.671,40.188 L16.167,47.995 L15.594,58.396 L15.048,68.801 L14.756,74.012 L14.756,74.008 L14.317,81.4 L13.405,96.207 L12.445,111.036 L11.439,125.885 L10.387,140.752 L9.291,155.637 L8.15,170.531 L6.961,185.427 L6.348,192.871 L6.348,192.871 L6.303,193.409 L6.216,194.453 L6.134,195.454 L6.056,196.414 L5.982,197.334 L5.911,198.216 L5.843,199.06 L5.779,199.868 L5.687,201.015 L5.573,202.43 L5.467,203.724 L5.368,204.908 L5.274,205.992 L5.183,206.986 L5.094,207.902 L5.004,208.749 L4.913,209.538 L4.818,210.28 L4.666,211.328 L4.434,212.663 L4.158,214.003 L3.913,215.061 L3.728,215.812 L3.525,216.611 L3.302,217.469 L3.056,218.397 L2.787,219.405 L2.492,220.503 L2.169,221.703 L1.909,222.675 L1.726,223.361 L1.535,224.077 L1.337,224.826 L1.13,225.609 L0.915,226.427 L0.691,227.281 L0.458,228.173 L0.339,228.634 C0.339,228.634 0.339,228.634 0.339,228.634 C0.316,228.718 0.37,228.972 0.459,229.2 C0.548,229.428 0.639,229.545 0.661,229.461 L0.661,229.461" fill="#000000"/>
    <path d="M101.269,203.898 L101.333,201.17 L101.446,195.683 L101.557,190.159 L101.681,184.603 L101.837,179.016 L102.043,173.4 L102.319,167.76 L102.687,162.107 L103.036,157.866 L103.311,155.044 L103.621,152.219 L103.97,149.399 L104.361,146.585 L104.795,143.776 L105.278,140.976 L105.81,138.186 L106.395,135.403 L107.035,132.633 L107.733,129.876 L108.491,127.13 L109.313,124.399 L110.2,121.684 L111.156,118.984 L112.184,116.301 L112.724,114.967 L112.724,114.968 L112.831,114.703 L113.053,114.137 L113.282,113.53 L113.517,112.887 L113.881,111.867 L114.39,110.426 L114.922,108.929 L115.478,107.414 L116.057,105.92 L116.658,104.485 L117.121,103.472 L117.436,102.837 L117.756,102.236 L118.08,101.677 L118.409,101.165 L118.742,100.703 L119.078,100.298 L119.418,99.953 L119.761,99.673 L120.107,99.462 L120.455,99.326 L120.803,99.267 L121.152,99.29 L121.498,99.397 L121.841,99.588 L122.176,99.863 L122.326,100.016 L122.297,99.986 L122.546,100.264 L122.988,100.828 L123.385,101.422 L123.746,102.048 L124.074,102.694 L124.369,103.354 L124.641,104.036 L124.9,104.76 L125.157,105.55 L125.416,106.428 L125.678,107.4 L125.94,108.467 L126.201,109.622 L126.456,110.858 L126.703,112.166 L126.941,113.538 L127.169,114.969 L127.385,116.453 L127.589,117.984 L127.781,119.559 L127.961,121.174 L128.129,122.825 L128.284,124.509 L128.426,126.22 L128.617,128.843 L128.831,132.415 L128.999,136.05 L129.12,139.73 L129.2,143.44 L129.236,147.15 L129.234,150.85 L129.191,154.509 L129.111,158.112 L128.993,161.635 L128.841,165.058 L128.664,168.382 L128.53,170.828 L128.45,172.452 L128.371,174.059 L128.291,175.635 L128.209,177.179 L128.123,178.68 L128.035,180.139 L127.941,181.549 L127.844,182.91 L127.743,184.217 L127.638,185.468 L127.53,186.66 L127.418,187.791 L127.303,188.857 L127.184,189.857 L127.063,190.788 L127.002,191.224 L127.002,191.224 C126.931,191.656 127.192,192.785 127.583,193.745 C127.974,194.705 128.349,195.133 128.419,194.7 L128.497,194.285 L128.65,193.41 L128.803,192.471 L128.954,191.471 L129.104,190.411 L129.251,189.294 L129.396,188.122 L129.539,186.896 L129.679,185.619 L129.814,184.291 L129.947,182.917 L130.073,181.493 L130.195,180.026 L130.308,178.51 L130.413,176.947 L130.505,175.33 L130.608,172.787 L130.705,169.252 L130.774,165.61 L130.822,161.9 L130.845,158.139 L130.84,154.342 L130.807,150.529 L130.737,146.707 L130.634,142.905 L130.49,139.128 L130.305,135.399 L130.076,131.738 L129.873,129.044 L129.721,127.271 L129.558,125.524 L129.382,123.803 L129.191,122.108 L128.986,120.44 L128.766,118.802 L128.53,117.193 L128.277,115.612 L128.005,114.06 L127.714,112.533 L127.401,111.03 L127.062,109.547 L126.695,108.081 L126.296,106.629 L125.861,105.197 L125.392,103.796 L124.892,102.452 L124.371,101.195 L123.84,100.05 L123.306,99.027 L122.771,98.126 L122.236,97.341 L121.709,96.676 L121.46,96.398 L121.46,96.398 C121.45,96.387 121.441,96.377 121.431,96.368 L121.431,96.368 L121.199,96.139 L120.777,95.806 L120.369,95.586 L119.973,95.471 L119.586,95.45 L119.207,95.517 L118.836,95.665 L118.471,95.889 L118.112,96.184 L117.759,96.543 L117.411,96.963 L117.069,97.438 L116.733,97.963 L116.402,98.533 L116.077,99.144 L115.756,99.792 L115.287,100.819 L114.681,102.267 L114.099,103.77 L113.54,105.291 L113.007,106.79 L112.5,108.228 L112.137,109.243 L111.903,109.881 L111.677,110.481 L111.458,111.041 L111.35,111.305 L111.35,111.305 C111.35,111.305 111.35,111.305 111.35,111.306 L111.35,111.306 L110.806,112.648 L109.773,115.344 L108.812,118.059 L107.92,120.791 L107.094,123.539 L106.331,126.303 L105.63,129.083 L104.987,131.876 L104.4,134.683 L103.868,137.503 L103.386,140.336 L102.953,143.179 L102.568,146.036 L102.226,148.902 L101.925,151.777 L101.665,154.667 L101.343,159.015 L101.031,164.842 L100.837,170.701 L100.742,176.589 L100.724,182.497 L100.76,188.413 L100.827,194.326 L100.902,200.225 L100.936,203.167 C100.936,203.167 100.936,203.167 100.936,203.167 C100.935,203.303 101.009,203.577 101.101,203.779 C101.193,203.981 101.268,204.034 101.269,203.898 L101.269,203.898" fill="#000000"/>
    <path d="M109.131,171.85 L109.415,171.704 L109.964,171.421 L110.74,171.019 L111.688,170.517 L112.545,170.053 L113.317,169.629 L114.013,169.244 L114.637,168.897 L115.198,168.584 L115.7,168.303 L116.151,168.051 L116.557,167.825 L116.923,167.62 L117.256,167.435 L117.562,167.265 L117.984,167.032 L118.51,166.746 L119.038,166.461 L119.465,166.234 L119.776,166.069 L120.116,165.89 L120.49,165.693 L120.906,165.477 L121.368,165.236 L121.883,164.969 L122.458,164.673 L123.1,164.347 L123.814,163.989 L124.603,163.58 L125.466,163.097 L125.93,162.834 L125.93,162.834 C125.942,162.827 125.934,162.766 125.911,162.696 C125.888,162.627 125.859,162.577 125.846,162.583 L125.372,162.814 L124.493,163.247 L123.707,163.665 L123.002,164.053 L122.366,164.398 L121.795,164.703 L121.281,164.976 L120.82,165.22 L120.406,165.44 L120.032,165.637 L119.693,165.817 L119.381,165.982 L118.954,166.21 L118.426,166.495 L117.901,166.782 L117.479,167.014 L117.173,167.184 L116.839,167.37 L116.473,167.574 L116.068,167.8 L115.617,168.052 L115.114,168.333 L114.554,168.647 L113.93,168.996 L113.237,169.387 L112.468,169.821 L111.619,170.308 L110.685,170.853 L109.925,171.305 L109.389,171.626 L109.111,171.792 C109.108,171.794 109.11,171.808 109.116,171.824 C109.121,171.84 109.128,171.852 109.131,171.85 L109.131,171.85" fill="#000000"/>
    <path d="M186.31,103.988 L186.267,103.931 L186.258,103.894 L186.373,104.158 L186.412,104.258 L186.428,104.156 L186.463,103.998 L186.559,103.712 L186.763,103.273 L187.045,102.779 L187.397,102.235 L187.813,101.644 L188.283,101.01 L188.802,100.337 L189.36,99.63 L189.951,98.89 L190.882,97.73 L192.167,96.103 L193.444,94.407 L194.657,92.674 L195.487,91.365 L195.988,90.491 L196.439,89.623 L196.833,88.764 L197.162,87.916 L197.42,87.081 L197.599,86.255 L197.689,85.428 L197.681,84.564 L197.532,83.512 L197.182,82.204 L196.785,81.168 L196.446,80.486 L196.133,79.979 L195.966,79.746 L195.966,79.746 C195.958,79.734 195.949,79.724 195.941,79.714 L195.941,79.714 L195.763,79.488 L195.371,79.041 L194.965,78.647 L194.557,78.315 L194.144,78.037 L193.726,77.811 L193.302,77.633 L192.872,77.5 L192.437,77.41 L191.995,77.363 L191.549,77.355 L191.097,77.385 L190.64,77.452 L190.179,77.554 L189.481,77.77 L188.54,78.173 L187.587,78.691 L186.627,79.313 L185.665,80.028 L184.704,80.828 L183.75,81.705 L182.805,82.643 L181.872,83.631 L180.956,84.66 L180.062,85.721 L179.194,86.804 L178.353,87.893 L177.546,88.98 L176.774,90.053 L176.044,91.105 L175.359,92.122 L174.721,93.093 L174.136,94.006 L173.607,94.852 L173.249,95.436 L173.03,95.798 L172.827,96.138 L172.642,96.453 L172.473,96.743 L172.322,97.006 L172.189,97.241 L172.075,97.445 L171.98,97.619 L171.904,97.761 L171.874,97.821 L171.874,97.821 C171.873,97.821 171.873,97.822 171.873,97.822 L171.873,97.822 L171.368,98.812 L170.357,100.839 L169.348,102.925 L168.345,105.067 L167.349,107.262 L166.364,109.505 L165.392,111.792 L164.437,114.122 L163.501,116.49 L162.587,118.893 L161.698,121.328 L160.836,123.79 L160.005,126.278 L159.207,128.787 L158.445,131.314 L157.722,133.856 L157.041,136.409 L156.404,138.97 L155.815,141.537 L155.276,144.105 L154.79,146.672 L154.36,149.234 L153.989,151.79 L153.679,154.335 L153.435,156.868 L153.257,159.386 L153.151,161.887 L153.118,164.371 L153.162,166.837 L153.288,169.286 L153.499,171.724 L153.801,174.158 L153.997,175.426 L153.997,175.426 C154.002,175.455 154.007,175.485 154.012,175.515 L154.012,175.515 L154.099,176.019 L154.311,177.114 L154.563,178.241 L154.854,179.375 L155.189,180.52 L155.569,181.661 L155.984,182.762 L156.419,183.78 L156.858,184.686 L157.291,185.476 L157.717,186.161 L158.138,186.757 L158.558,187.278 L158.979,187.736 L159.403,188.138 L159.833,188.49 L160.269,188.796 L160.711,189.06 L161.162,189.284 L161.62,189.47 L162.085,189.62 L162.558,189.735 L163.037,189.815 L163.523,189.863 L164.262,189.875 L165.268,189.788 L166.295,189.588 L167.337,189.285 L168.39,188.886 L169.451,188.399 L170.517,187.836 L171.583,187.2 L172.644,186.5 L173.696,185.742 L174.736,184.934 L175.759,184.087 L176.762,183.209 L177.74,182.303 L178.689,181.378 L179.604,180.442 L180.482,179.507 L181.319,178.575 L182.109,177.652 L182.85,176.753 L183.201,176.311 L183.201,176.311 C183.202,176.311 183.202,176.311 183.202,176.31 L183.202,176.31 L183.645,175.746 L184.486,174.67 L185.271,173.663 L186.001,172.715 L186.681,171.823 L187.311,170.977 L187.895,170.171 L188.434,169.397 L188.933,168.654 L189.393,167.932 L189.819,167.234 L190.216,166.554 L190.759,165.558 L191.412,164.261 L192.001,162.958 L192.556,161.619 L193.096,160.2 L193.508,159.062 L193.791,158.258 L194.084,157.413 L194.391,156.521 L194.714,155.577 L195.057,154.575 L195.423,153.512 L195.814,152.38 L196.233,151.176 L196.685,149.894 L196.923,149.223 L196.923,149.223 C197.043,148.915 196.832,147.849 196.453,146.843 C196.073,145.836 195.669,145.269 195.55,145.576 L195.289,146.192 L194.796,147.367 L194.337,148.471 L193.91,149.509 L193.511,150.485 L193.136,151.403 L192.784,152.269 L192.451,153.088 L192.133,153.862 L191.828,154.597 L191.387,155.637 L190.812,156.932 L190.231,158.16 L189.617,159.354 L188.945,160.564 L188.388,161.499 L187.988,162.152 L187.56,162.831 L187.101,163.543 L186.611,164.299 L186.085,165.1 L185.521,165.954 L184.916,166.863 L184.265,167.829 L183.563,168.855 L182.809,169.945 L181.997,171.101 L181.569,171.706 L181.57,171.704 L181.233,172.173 L180.519,173.13 L179.752,174.101 L178.939,175.084 L178.084,176.072 L177.189,177.049 L176.26,178.014 L175.302,178.959 L174.319,179.877 L173.313,180.756 L172.289,181.59 L171.253,182.373 L170.209,183.098 L169.161,183.757 L168.113,184.343 L167.067,184.843 L166.031,185.254 L165.009,185.57 L164.004,185.782 L163.021,185.883 L162.3,185.882 L161.831,185.843 L161.37,185.773 L160.918,185.671 L160.477,185.536 L160.046,185.367 L159.627,185.165 L159.221,184.928 L158.83,184.658 L158.454,184.357 L158.098,184.026 L157.762,183.669 L157.45,183.293 L157.167,182.905 L156.917,182.52 L156.702,182.15 L156.523,181.806 L156.371,181.481 L156.232,181.145 L156.089,180.751 L155.937,180.263 L155.775,179.664 L155.61,178.955 L155.443,178.11 L155.355,177.604 L155.37,177.693 L155.21,176.686 L154.933,174.507 L154.733,172.252 L154.611,169.937 L154.566,167.573 L154.596,165.167 L154.698,162.727 L154.87,160.258 L155.11,157.765 L155.414,155.253 L155.78,152.725 L156.205,150.186 L156.687,147.64 L157.221,145.09 L157.807,142.539 L158.44,139.992 L159.118,137.451 L159.838,134.921 L160.597,132.405 L161.392,129.906 L162.22,127.427 L163.079,124.973 L163.966,122.545 L164.877,120.148 L165.81,117.786 L166.763,115.461 L167.731,113.175 L168.712,110.934 L169.704,108.74 L170.703,106.597 L171.706,104.506 L172.712,102.473 L173.215,101.478 L173.215,101.479 L173.243,101.423 L173.317,101.284 L173.41,101.112 L173.523,100.908 L173.654,100.674 L173.804,100.412 L173.971,100.122 L174.155,99.806 L174.356,99.465 L174.572,99.1 L174.926,98.513 L175.451,97.661 L176.031,96.741 L176.663,95.764 L177.342,94.739 L178.065,93.678 L178.827,92.589 L179.625,91.486 L180.455,90.379 L181.313,89.28 L182.195,88.198 L183.095,87.141 L184.012,86.125 L184.941,85.16 L185.879,84.258 L186.819,83.424 L187.759,82.673 L188.696,82.017 L189.625,81.468 L190.543,81.035 L191.221,80.79 L191.666,80.668 L192.105,80.581 L192.539,80.531 L192.965,80.518 L193.384,80.543 L193.795,80.608 L194.197,80.714 L194.589,80.86 L194.97,81.047 L195.337,81.275 L195.691,81.542 L196.028,81.846 L196.357,82.196 L196.532,82.407 L196.507,82.375 L196.568,82.448 L196.664,82.571 L196.672,82.541 L196.564,82.179 L196.538,81.921 L196.632,82.336 L196.663,83.007 L196.604,83.777 L196.458,84.603 L196.233,85.467 L195.934,86.357 L195.57,87.268 L195.149,88.194 L194.678,89.13 L193.895,90.551 L192.745,92.446 L191.529,94.308 L190.307,96.11 L189.422,97.399 L188.859,98.22 L188.328,99.007 L187.835,99.754 L187.387,100.459 L186.993,101.117 L186.659,101.725 L186.392,102.28 L186.199,102.778 L186.107,103.116 L186.073,103.335 L186.066,103.578 L186.13,103.991 L186.321,104.532 L186.439,104.738 L186.481,104.789 C186.56,104.891 186.585,104.794 186.538,104.572 C186.491,104.351 186.388,104.089 186.31,103.988 L186.31,103.988" fill="#000000"/>
    <path d="M222.314,110.218 L222.185,111.991 L221.903,115.575 L221.619,119.263 L221.364,123.125 L221.093,127.047 L220.806,131.023 L220.332,137.024 L219.617,145.023 L218.839,152.99 L217.988,160.803 L217.164,168.587 L217.026,173.06 L217.026,173.06 C216.984,173.561 217.271,174.718 217.666,175.644 C218.062,176.57 218.416,176.915 218.458,176.414 C218.458,176.414 218.458,176.414 218.458,176.414 L218.987,172.877 L219.617,164.648 L220.304,156.448 L221.054,148.4 L221.767,140.375 L222.241,134.348 L222.507,130.301 L222.71,126.195 L222.841,122.022 L222.843,117.67 L222.735,113.205 L222.647,110.952 C222.648,110.817 222.575,110.544 222.483,110.341 C222.391,110.138 222.315,110.083 222.314,110.218 L222.314,110.218" fill="#000000"/>
    <path d="M318.186,75.533 L318.125,75.659 L318.017,75.873 L317.93,76.041 L317.862,76.164 L317.814,76.243 L317.786,76.278 L317.793,76.267 L318.128,77.141 L318.147,77.086 L318.184,76.978 L318.239,76.833 L318.31,76.654 L318.396,76.443 L318.498,76.203 L318.613,75.934 L318.743,75.639 L318.964,75.148 L319.302,74.414 L319.688,73.599 L320.118,72.716 L320.589,71.778 L321.097,70.796 L321.638,69.783 L322.208,68.746 L323.11,67.18 L324.059,65.638 L324.711,64.644 L325.373,63.686 L326.043,62.781 L326.717,61.942 L327.393,61.182 L328.065,60.511 L328.729,59.939 L329.383,59.482 L329.863,59.224 L330.178,59.095 L330.488,59.001 L330.793,58.945 L331.092,58.927 L331.384,58.95 L331.668,59.014 L331.943,59.12 L332.207,59.268 L332.459,59.458 L332.572,59.56 L332.557,59.547 L332.712,59.698 L332.983,59.992 L333.213,60.282 L333.406,60.564 L333.637,60.973 L333.793,61.369 L333.768,61.431 L333.754,61.545 L333.801,61.987 L333.852,62.654 L333.88,63.438 L333.88,64.282 L333.84,65.613 L333.757,67.422 L333.71,68.779 L333.703,69.686 L333.71,70.151 L333.71,70.151 C333.71,70.154 333.711,70.158 333.711,70.161 L333.711,70.161 L333.742,71.561 L333.776,74.349 L333.758,78.533 L333.637,84.132 L333.447,89.746 L333.23,95.376 L333.033,101.022 L332.903,106.686 L332.875,110.951 L332.902,113.806 L332.932,115.241 L332.932,115.241 C332.932,115.249 332.932,115.257 332.932,115.264 L332.932,115.264 L332.967,116.335 L333.087,118.583 L333.267,120.919 L333.499,123.319 L333.774,125.773 L334.083,128.274 L334.418,130.815 L334.77,133.388 L335.312,137.293 L336.021,142.564 L336.507,146.53 L336.795,149.167 L337.045,151.807 L337.251,154.439 L337.405,157.058 L337.497,159.659 L337.522,162.238 L337.469,164.786 L337.332,167.302 L337.103,169.78 L336.867,171.607 L336.677,172.808 L336.457,173.997 L336.209,175.173 L335.931,176.335 L335.623,177.482 L335.283,178.613 L334.91,179.728 L334.503,180.823 L334.061,181.897 L333.582,182.952 L333.067,183.987 L332.515,185.002 L331.923,185.995 L331.291,186.962 L330.617,187.903 L329.901,188.821 L329.143,189.715 L328.34,190.58 L327.49,191.414 L327.049,191.821 L327.051,191.819 L326.713,192.118 L326.011,192.707 L325.271,193.281 L324.496,193.838 L323.689,194.38 L322.852,194.902 L321.987,195.401 L321.097,195.878 L320.186,196.33 L319.255,196.758 L318.309,197.164 L317.352,197.55 L316.385,197.913 L315.415,198.261 L314.439,198.577 L313.462,198.869 L312.483,199.12 L311.507,199.339 L310.534,199.513 L309.565,199.641 L308.605,199.725 L307.654,199.757 L306.716,199.737 L305.793,199.664 L304.887,199.533 L304.001,199.345 L303.138,199.096 L302.301,198.785 L301.491,198.411 L300.713,197.973 L299.969,197.469 L299.264,196.901 L298.935,196.6 L298.935,196.6 C298.627,196.304 298.581,196.882 298.832,197.893 C299.083,198.903 299.537,199.962 299.845,200.259 L300.232,200.646 L301.01,201.342 L301.817,201.959 L302.653,202.501 L303.514,202.973 L304.399,203.377 L305.307,203.716 L306.235,203.992 L307.181,204.208 L308.144,204.366 L309.119,204.467 L310.106,204.516 L311.102,204.513 L312.103,204.456 L313.109,204.353 L314.116,204.205 L315.12,204.004 L316.121,203.764 L317.112,203.47 L318.094,203.136 L319.06,202.748 L320.01,202.319 L320.943,201.852 L321.855,201.349 L322.748,200.819 L323.619,200.267 L324.466,199.694 L325.287,199.104 L326.079,198.499 L326.84,197.879 L327.568,197.25 L328.26,196.613 L328.591,196.292 L328.591,196.292 C328.592,196.291 328.592,196.291 328.593,196.29 L328.593,196.29 L329.029,195.85 L329.866,194.951 L330.661,194.03 L331.412,193.086 L332.12,192.117 L332.787,191.123 L333.414,190.107 L334.002,189.072 L334.552,188.015 L335.064,186.936 L335.539,185.836 L335.979,184.715 L336.384,183.579 L336.757,182.425 L337.096,181.253 L337.404,180.063 L337.681,178.857 L337.928,177.634 L338.146,176.397 L338.337,175.143 L338.575,173.24 L338.801,170.664 L338.934,168.044 L338.98,165.386 L338.95,162.701 L338.849,159.992 L338.687,157.268 L338.471,154.535 L338.21,151.801 L337.91,149.065 L337.411,145.004 L336.695,139.693 L336.155,135.805 L335.808,133.273 L335.482,130.796 L335.183,128.379 L334.918,126.025 L334.697,123.74 L334.524,121.525 L334.408,119.37 L334.374,118.299 L334.374,118.322 L334.346,116.926 L334.319,114.123 L334.345,109.906 L334.475,104.272 L334.668,98.627 L334.878,92.969 L335.059,87.295 L335.159,81.598 L335.153,77.304 L335.099,74.435 L335.054,73.006 L335.054,73.016 L335.043,72.62 L335.041,71.765 L335.073,70.403 L335.136,68.504 L335.157,67.045 L335.141,66.048 L335.085,65.018 L334.969,63.913 L334.747,62.635 L334.344,61.093 L333.791,59.576 L333.263,58.482 L332.868,57.838 L332.586,57.452 L332.291,57.103 L331.986,56.789 L331.833,56.647 L331.833,56.647 C331.828,56.643 331.823,56.638 331.819,56.634 L331.819,56.634 L331.663,56.505 L331.37,56.306 L331.075,56.161 L330.777,56.067 L330.477,56.019 L330.173,56.015 L329.866,56.054 L329.555,56.134 L329.241,56.252 L328.923,56.408 L328.442,56.709 L327.795,57.224 L327.142,57.86 L326.488,58.607 L325.835,59.451 L325.185,60.376 L324.541,61.37 L323.908,62.419 L323.289,63.518 L322.393,65.218 L321.545,66.94 L321.011,68.081 L320.508,69.202 L320.036,70.287 L319.6,71.323 L319.203,72.298 L318.847,73.197 L318.536,74.007 L318.334,74.55 L318.216,74.877 L318.11,75.175 L318.017,75.442 L317.938,75.676 L317.874,75.875 L317.823,76.04 L317.787,76.169 L317.764,76.276 L318.09,77.234 L318.122,77.225 L318.154,77.177 L318.201,77.086 L318.265,76.947 L318.346,76.759 L318.445,76.521 L318.502,76.382 C318.531,76.316 318.485,76.072 318.398,75.838 C318.31,75.603 318.216,75.467 318.186,75.533 L318.186,75.533" fill="#000000"/>
    <path d="M250.381,85.824 L250.422,88.455 L250.461,93.727 L250.464,99.068 L250.453,104.548 L250.374,110.062 L250.217,115.607 L249.966,121.157 L249.611,126.7 L249.145,132.232 L248.565,137.752 L247.866,143.262 L247.038,148.747 L246.061,154.167 L244.923,159.503 L243.625,164.764 L242.44,170.653 L241.829,173.681 L241.829,173.681 C241.734,174.051 241.969,175.151 242.355,176.136 C242.741,177.122 243.132,177.621 243.227,177.251 L244.045,174.722 L245.515,169.513 L246.607,163.691 L247.6,157.955 L248.501,152.307 L249.306,146.724 L250,141.159 L250.58,135.593 L251.048,130.02 L251.407,124.436 L251.657,118.831 L251.793,113.186 L251.805,107.471 L251.693,101.677 L251.406,95.694 L250.974,89.585 L250.713,86.503 C250.713,86.503 250.713,86.503 250.713,86.503 C250.705,86.348 250.624,86.07 250.532,85.883 C250.441,85.695 250.373,85.668 250.381,85.824 L250.381,85.824" fill="#000000"/>
    <path d="M258.344,85.875 L259.815,85.78 L262.713,85.472 L265.532,84.949 L268.252,84.148 L270.921,83.214 L273.544,82.163 L276.135,81.036 L278.704,79.859 L281.253,78.642 L283.789,77.395 L287.576,75.5 L292.647,73.064 L297.708,70.618 L300.021,68.742 L300.021,68.742 C300.213,68.638 300.085,67.704 299.737,66.656 C299.388,65.609 298.95,64.844 298.759,64.948 L296.101,65.785 L291.211,68.743 L286.287,71.611 L282.527,73.581 L279.996,74.837 L277.448,76.052 L274.882,77.227 L272.296,78.36 L269.695,79.468 L267.088,80.581 L264.477,81.706 L261.904,82.976 L259.343,84.319 L258.059,84.994 C258.059,84.994 258.059,84.994 258.059,84.994 C258.012,85.008 258.036,85.216 258.115,85.459 C258.194,85.702 258.296,85.888 258.344,85.875 L258.344,85.875" fill="#000000"/>
    <path d="M252.148,133.624 L253.564,133.517 L256.373,133.206 L259.13,132.709 L261.813,131.961 L264.465,131.103 L267.081,130.12 L269.683,129.088 L272.273,128.013 L276.139,126.351 L281.267,124.077 L286.406,121.902 L291.506,119.709 L293.822,117.951 L293.822,117.951 C294.016,117.855 293.892,116.927 293.545,115.878 C293.198,114.83 292.759,114.058 292.565,114.154 L289.906,114.87 L284.977,117.575 L279.984,120.185 L274.885,122.536 L271.023,124.205 L268.435,125.276 L265.839,126.322 L263.237,127.341 L260.654,128.405 L258.084,129.492 L255.572,130.737 L253.095,132.069 L251.863,132.744 C251.863,132.744 251.863,132.744 251.863,132.744 C251.815,132.758 251.84,132.966 251.919,133.209 C251.998,133.453 252.1,133.638 252.148,133.624 L252.148,133.624" fill="#000000"/>
    <path d="M248.14,173.354 L251.009,172.687 L256.63,170.961 L262.12,168.805 L267.537,166.416 L272.927,163.967 L276.943,162.08 L279.612,160.814 L282.286,159.588 L284.97,158.417 L287.657,157.281 L290.093,155.422 L291.276,154.398 L291.276,154.398 C291.465,154.286 291.334,153.347 290.984,152.3 C290.634,151.253 290.197,150.495 290.008,150.607 C290.008,150.607 290.008,150.607 290.008,150.607 L288.648,151.09 L285.956,152.168 L283.461,153.872 L280.916,155.454 L278.317,156.901 L275.676,158.241 L271.67,160.153 L266.285,162.613 L260.876,165.024 L255.533,167.63 L250.355,170.705 L247.851,172.475 C247.851,172.475 247.851,172.475 247.851,172.475 C247.805,172.496 247.833,172.709 247.913,172.952 C247.993,173.195 248.095,173.374 248.14,173.354 L248.14,173.354" fill="#000000"/>
    <path d="M527.49,145 L527.521,145.226 L527.572,145.667 L527.638,146.38 L527.707,147.428 L527.762,148.59 L527.807,149.874 L527.85,151.284 L527.896,152.824 L527.959,154.509 L528.015,156.287 L528.083,158.182 L528.151,160.162 L528.217,162.213 L528.278,164.318 L528.334,166.466 L528.406,169.741 L528.477,174.146 L528.521,178.519 L528.54,181.736 L528.539,183.818 L528.53,185.842 L528.507,187.789 L528.468,189.639 L528.403,191.364 L528.324,192.977 L528.224,194.454 L528.239,196.082 L528.322,197.749 L528.419,199.325 L528.513,200.763 L528.557,201.425 L528.557,201.425 C528.557,202.222 528.989,203.812 529.522,204.976 C530.055,206.14 530.487,206.437 530.487,205.64 C530.487,205.64 530.487,205.64 530.487,205.64 L530.532,205.177 L530.629,204.159 L530.731,203.02 L530.821,201.731 L530.843,200.181 L530.748,198.276 L530.673,196.322 L530.609,194.31 L530.567,192.277 L530.536,190.207 L530.512,188.103 L530.49,185.962 L530.462,182.708 L530.41,178.293 L530.338,173.862 L530.267,170.565 L530.21,168.394 L530.141,166.25 L530.06,164.139 L529.963,162.066 L529.846,160.031 L529.698,158.023 L529.534,156.085 L529.333,154.18 L529.104,152.344 L528.854,150.599 L528.588,148.966 L528.31,147.472 L528.097,146.456 L527.954,145.833 L527.885,145.554 C527.885,145.554 527.885,145.554 527.885,145.554 C527.828,145.266 527.694,144.908 527.584,144.755 C527.475,144.602 527.433,144.712 527.49,145 L527.49,145" fill="#000000"/>
    <path d="M560.576,124.105 L560.625,124.197 L560.622,124.227 L560.612,124.255 L560.652,124.473 L560.713,124.84 L560.78,125.311 L560.846,125.865 L560.91,126.492 L560.971,127.185 L561.029,127.94 L561.083,128.752 L561.134,129.619 L561.182,130.537 L561.226,131.504 L561.267,132.517 L561.305,133.572 L561.34,134.667 L561.371,135.8 L561.412,137.565 L561.458,140.026 L561.495,142.593 L561.521,145.242 L561.537,147.953 L561.55,152.102 L561.545,156.274 L561.535,159.038 L561.521,161.766 L561.501,164.431 L561.477,167.016 L561.451,169.504 L561.429,171.287 L561.413,172.432 L561.396,173.54 L561.377,174.606 L561.36,175.634 L561.342,176.615 L561.323,177.548 L561.304,178.43 L561.284,179.257 L561.263,180.027 L561.242,180.737 L561.22,181.385 L561.198,181.968 L561.176,182.482 L561.153,182.924 L561.13,183.29 L561.108,183.576 L561.088,183.775 L561.07,183.873 L561.07,183.839 L561.165,183.727 L561.314,183.792 L561.006,183.53 L560.444,182.983 L559.936,182.396 L559.476,181.773 L559.068,181.132 L558.717,180.494 L558.427,179.883 L558.194,179.314 L558.004,178.775 L557.832,178.22 L557.659,177.591 L557.479,176.85 L557.294,175.986 L557.111,175.011 L556.937,173.939 L556.778,172.786 L556.637,171.565 L556.516,170.287 L556.414,168.958 L556.334,167.584 L556.275,166.172 L556.238,164.725 L556.222,163.25 L556.228,161.747 L556.276,159.445 L556.409,156.311 L556.619,153.125 L556.904,149.902 L557.258,146.661 L557.678,143.419 L558.16,140.195 L558.701,137.007 L559.296,133.873 L559.941,130.811 L560.633,127.837 L561.179,125.678 L561.556,124.275 L561.942,122.903 L562.338,121.566 L562.741,120.265 L563.153,119.003 L563.572,117.782 L563.998,116.603 L564.43,115.47 L564.868,114.384 L565.311,113.348 L565.759,112.363 L566.211,111.432 L566.667,110.558 L567.126,109.741 L567.588,108.985 L568.052,108.291 L568.518,107.662 L568.749,107.374 L568.747,107.376 L569.259,106.764 L570.252,105.615 L571.203,104.562 L572.115,103.604 L572.986,102.737 L573.819,101.96 L574.614,101.271 L575.37,100.667 L576.089,100.146 L576.77,99.707 L577.415,99.347 L578.023,99.064 L578.595,98.855 L579.131,98.718 L579.631,98.651 L580.095,98.651 L580.523,98.715 L580.912,98.839 L581.261,99.017 L581.566,99.241 L581.82,99.493 L582.008,99.744 L582.108,99.931 L582.091,99.947 L581.961,99.704 L581.814,99.347 L581.749,99.189 L581.76,99.332 L581.803,99.708 L581.848,100.238 L581.881,100.873 L581.896,101.582 L581.89,102.349 L581.861,103.164 L581.811,104.017 L581.738,104.905 L581.643,105.822 L581.527,106.765 L581.313,108.226 L580.957,110.233 L580.526,112.29 L580.022,114.383 L579.45,116.493 L578.815,118.601 L578.12,120.691 L577.371,122.746 L576.571,124.747 L575.725,126.677 L574.838,128.52 L574.148,129.833 L573.678,130.671 L573.199,131.479 L572.713,132.253 L572.468,132.626 L572.469,132.625 L572.228,132.986 L571.784,133.652 L571.389,134.244 L571.044,134.763 L570.745,135.213 L570.494,135.596 L570.288,135.913 L570.126,136.167 L570.006,136.362 L569.927,136.5 L569.881,136.598 L570.157,138.761 L571.714,141.614 L571.812,141.518 L571.936,141.382 L572.094,141.202 L572.284,140.98 L572.508,140.716 L572.765,140.413 L573.052,140.072 L573.369,139.696 L573.716,139.287 L574.09,138.847 L574.491,138.378 L574.919,137.883 L575.37,137.363 L575.846,136.82 L576.344,136.257 L577.131,135.38 L578.25,134.16 L579.439,132.897 L580.69,131.61 L581.994,130.314 L583.342,129.029 L584.727,127.773 L586.138,126.561 L587.568,125.411 L589.006,124.338 L590.444,123.362 L591.873,122.498 L592.933,121.935 L593.632,121.604 L594.324,121.31 L595.007,121.056 L595.681,120.845 L596.344,120.678 L596.995,120.557 L597.633,120.484 L598.256,120.463 L598.863,120.495 L599.453,120.581 L600.023,120.722 L600.295,120.812 L600.288,120.81 L600.481,120.882 L600.845,121.04 L601.356,121.313 L601.973,121.739 L602.51,122.219 L602.963,122.735 L603.323,123.251 L603.57,123.702 L603.683,123.991 L603.677,124.057 L603.635,124.029 L603.642,124.163 L603.703,124.56 L603.783,125.173 L603.857,125.93 L603.91,126.779 L603.94,127.687 L603.935,129.132 L603.845,131.098 L603.673,133.052 L603.502,134.48 L603.372,135.405 L603.231,136.305 L603.083,137.169 L602.929,137.992 L602.773,138.771 L602.618,139.499 L602.465,140.172 L602.318,140.784 L602.178,141.331 L602.113,141.575 L602.115,141.568 L601.879,142.413 L601.373,144.101 L600.812,145.79 L600.2,147.484 L599.536,149.183 L598.823,150.881 L598.057,152.567 L597.243,154.246 L596.38,155.913 L595.469,157.56 L594.51,159.189 L593.507,160.797 L592.461,162.386 L591.373,163.956 L590.251,165.517 L589.093,167.065 L587.897,168.585 L586.669,170.087 L585.399,171.544 L584.095,172.967 L582.752,174.338 L581.371,175.656 L579.954,176.92 L578.499,178.12 L577.009,179.257 L575.483,180.324 L573.923,181.319 L572.328,182.238 L570.7,183.077 L569.038,183.832 L567.345,184.501 L565.621,185.079 L564.748,185.333 L564.748,185.333 C564.469,185.403 564.61,186.601 565.063,188.011 C565.517,189.42 566.112,190.506 566.391,190.436 L567.293,190.247 L569.071,189.798 L570.818,189.258 L572.533,188.63 L574.214,187.918 L575.862,187.124 L577.476,186.254 L579.054,185.308 L580.597,184.292 L582.102,183.207 L583.57,182.059 L585,180.847 L586.389,179.576 L587.74,178.252 L589.046,176.863 L590.31,175.429 L591.526,173.928 L592.695,172.377 L593.814,170.771 L594.881,169.11 L595.901,167.412 L596.874,165.682 L597.801,163.933 L598.682,162.166 L599.518,160.389 L600.308,158.605 L601.049,156.813 L601.744,155.025 L602.39,153.237 L602.985,151.452 L603.531,149.674 L604.026,147.916 L604.252,147.047 L604.252,147.047 C604.253,147.045 604.253,147.043 604.254,147.041 L604.254,147.041 L604.32,146.775 L604.458,146.196 L604.603,145.548 L604.752,144.837 L604.904,144.069 L605.055,143.247 L605.204,142.376 L605.348,141.463 L605.485,140.513 L605.613,139.525 L605.782,137.988 L605.947,135.865 L606.026,133.685 L606.014,132.025 L605.966,130.884 L605.877,129.712 L605.74,128.488 L605.535,127.169 L605.231,125.694 L604.79,124.023 L604.211,122.272 L603.573,120.703 L602.956,119.458 L602.368,118.485 L601.785,117.696 L601.183,117.038 L600.544,116.486 L599.862,116.029 L599.315,115.745 L598.932,115.584 L598.74,115.514 L598.74,115.514 C598.737,115.513 598.734,115.512 598.732,115.511 L598.732,115.511 L598.434,115.417 L597.836,115.277 L597.224,115.197 L596.599,115.172 L595.961,115.202 L595.309,115.281 L594.647,115.409 L593.974,115.584 L593.291,115.804 L592.6,116.065 L591.902,116.367 L591.196,116.708 L590.128,117.285 L588.692,118.165 L587.249,119.159 L585.807,120.248 L584.376,121.416 L582.963,122.644 L581.578,123.915 L580.227,125.21 L578.921,126.514 L577.669,127.809 L576.479,129.079 L575.359,130.305 L574.571,131.187 L574.073,131.752 L573.597,132.296 L573.144,132.818 L572.716,133.315 L572.315,133.786 L571.94,134.227 L571.594,134.637 L571.276,135.013 L570.989,135.354 L570.734,135.657 L570.511,135.92 L570.323,136.141 L570.169,136.316 L570.055,136.442 L569.988,136.512 L571.455,139.429 L571.719,141.551 L571.742,141.497 L571.813,141.371 L571.929,141.183 L572.089,140.931 L572.294,140.615 L572.545,140.234 L572.842,139.784 L573.187,139.264 L573.581,138.671 L574.025,138.005 L574.266,137.642 L574.266,137.642 C574.266,137.642 574.267,137.642 574.267,137.641 L574.267,137.641 L574.516,137.261 L575.008,136.476 L575.492,135.657 L575.969,134.806 L576.667,133.475 L577.563,131.611 L578.416,129.659 L579.224,127.635 L579.981,125.557 L580.683,123.441 L581.325,121.303 L581.905,119.16 L582.417,117.029 L582.857,114.924 L583.22,112.865 L583.441,111.359 L583.562,110.372 L583.661,109.403 L583.738,108.451 L583.793,107.517 L583.823,106.6 L583.828,105.696 L583.806,104.798 L583.753,103.894 L583.661,102.959 L583.515,101.946 L583.285,100.782 L582.925,99.403 L582.429,97.915 L581.893,96.635 L581.413,95.712 L580.992,95.063 L580.601,94.584 L580.214,94.219 L579.818,93.94 L579.403,93.735 L578.965,93.6 L578.501,93.533 L578.008,93.534 L577.484,93.606 L576.929,93.749 L576.34,93.964 L575.718,94.255 L575.062,94.622 L574.37,95.068 L573.643,95.595 L572.878,96.205 L572.077,96.901 L571.238,97.684 L570.36,98.556 L569.443,99.52 L568.487,100.577 L567.492,101.73 L566.979,102.342 L566.979,102.342 C566.978,102.343 566.978,102.344 566.977,102.344 L566.977,102.344 L566.737,102.643 L566.261,103.287 L565.788,103.996 L565.317,104.766 L564.85,105.597 L564.387,106.485 L563.928,107.429 L563.474,108.427 L563.026,109.476 L562.583,110.575 L562.146,111.721 L561.716,112.912 L561.293,114.146 L560.877,115.421 L560.47,116.735 L560.071,118.085 L559.681,119.47 L559.3,120.888 L558.749,123.071 L558.051,126.073 L557.401,129.167 L556.802,132.335 L556.258,135.561 L555.772,138.827 L555.349,142.118 L554.994,145.419 L554.71,148.712 L554.5,151.981 L554.37,155.207 L554.328,157.591 L554.327,159.166 L554.348,160.724 L554.393,162.264 L554.461,163.787 L554.554,165.292 L554.674,166.781 L554.822,168.257 L555,169.721 L555.211,171.18 L555.458,172.642 L555.75,174.119 L556.091,175.621 L556.493,177.156 L556.958,178.708 L557.48,180.235 L558.04,181.675 L558.617,182.977 L559.196,184.125 L559.775,185.13 L560.358,186.01 L560.951,186.785 L561.56,187.466 L562.179,188.053 L562.486,188.308 L562.486,188.308 C562.543,188.355 562.593,188.377 562.635,188.372 L562.635,188.372 L562.753,188.258 L562.8,188.09 L562.828,187.886 L562.852,187.622 L562.874,187.287 L562.893,186.882 L562.912,186.407 L562.929,185.862 L562.945,185.251 L562.96,184.575 L562.973,183.837 L562.985,183.039 L562.996,182.183 L563.006,181.273 L563.014,180.311 L563.021,179.299 L563.026,178.24 L563.028,177.133 L563.029,175.983 L563.028,174.795 L563.023,172.945 L563.011,170.367 L562.989,167.673 L562.958,164.889 L562.92,162.04 L562.872,159.141 L562.781,154.75 L562.672,150.382 L562.585,147.51 L562.49,144.703 L562.386,141.982 L562.273,139.366 L562.181,137.487 L562.117,136.279 L562.051,135.11 L561.983,133.983 L561.913,132.9 L561.84,131.864 L561.765,130.877 L561.688,129.942 L561.608,129.061 L561.525,128.236 L561.44,127.468 L561.351,126.758 L561.258,126.106 L561.159,125.505 L561.049,124.939 L560.911,124.372 L560.716,123.764 L560.521,123.314 L560.472,123.227 C560.352,123.009 560.278,123.028 560.307,123.271 C560.336,123.513 560.456,123.887 560.576,124.105 L560.576,124.105" fill="#000000"/>
    <path d="M636.726,158.082 L636.739,157.947 L636.78,157.609 L636.839,157.177 L636.917,156.652 L637.015,156.039 L637.131,155.342 L637.265,154.563 L637.417,153.705 L637.587,152.774 L637.775,151.772 L637.981,150.703 L638.205,149.569 L638.445,148.369 L638.701,147.111 L638.976,145.8 L639.266,144.436 L639.571,143.017 L639.893,141.553 L640.231,140.049 L640.581,138.495 L640.948,136.906 L641.33,135.285 L641.724,133.622 L642.133,131.935 L642.772,129.353 L643.674,125.84 L644.628,122.266 L645.638,118.668 L646.707,115.079 L647.832,111.523 L648.714,108.903 L649.32,107.182 L649.941,105.488 L650.578,103.826 L651.229,102.196 L651.894,100.604 L652.575,99.054 L653.271,97.549 L653.982,96.094 L654.708,94.691 L655.448,93.344 L656.204,92.057 L656.974,90.833 L657.759,89.676 L658.559,88.59 L659.374,87.578 L660.203,86.643 L661.047,85.79 L661.905,85.021 L662.778,84.341 L663.664,83.752 L664.566,83.258 L665.481,82.863 L666.41,82.57 L667.353,82.382 L668.309,82.304 L669.279,82.337 L670.263,82.485 L670.755,82.603 L670.747,82.6 L671.246,82.747 L672.191,83.106 L673.077,83.55 L673.905,84.076 L674.677,84.679 L675.39,85.35 L676.042,86.081 L676.629,86.855 L677.145,87.653 L677.584,88.445 L677.941,89.2 L678.222,89.896 L678.449,90.555 L678.655,91.249 L678.864,92.056 L679.081,93.015 L679.297,94.124 L679.502,95.363 L679.689,96.707 L679.851,98.137 L679.986,99.638 L680.094,101.199 L680.173,102.812 L680.224,104.467 L680.247,106.16 L680.242,107.887 L680.21,109.641 L680.152,111.416 L680.018,114.124 L679.761,117.786 L679.413,121.466 L678.99,125.161 L678.491,128.828 L677.932,132.456 L677.315,136.01 L676.648,139.461 L675.934,142.777 L675.381,145.18 L675.008,146.739 L674.642,148.29 L674.29,149.842 L673.952,151.386 L673.622,152.908 L673.3,154.397 L672.98,155.836 L672.666,157.226 L672.354,158.557 L672.048,159.828 L671.748,161.033 L671.453,162.17 L671.166,163.235 L670.886,164.225 L670.616,165.136 L670.356,165.965 L670.107,166.709 L669.988,167.046 L669.988,167.046 C669.825,167.45 670.104,168.873 670.611,170.225 C671.118,171.577 671.662,172.346 671.825,171.942 L671.966,171.637 L672.256,170.973 L672.561,170.236 L672.879,169.426 L673.209,168.547 L673.549,167.601 L673.9,166.59 L674.259,165.517 L674.626,164.383 L674.998,163.19 L675.375,161.941 L675.752,160.631 L676.131,159.27 L676.505,157.842 L676.87,156.346 L677.22,154.77 L677.55,153.111 L677.867,151.386 L678.332,148.734 L678.932,145.097 L679.514,141.394 L680.065,137.637 L680.575,133.841 L681.029,130.018 L681.426,126.199 L681.748,122.387 L681.993,118.623 L682.117,115.832 L682.169,113.986 L682.196,112.159 L682.197,110.352 L682.169,108.565 L682.112,106.799 L682.023,105.053 L681.901,103.326 L681.742,101.614 L681.544,99.912 L681.302,98.209 L681.008,96.494 L680.652,94.745 L680.222,92.951 L679.707,91.112 L679.11,89.274 L678.453,87.522 L677.766,85.932 L677.07,84.531 L676.368,83.305 L675.654,82.225 L674.918,81.271 L674.154,80.425 L673.355,79.679 L672.515,79.029 L671.633,78.472 L670.704,78.009 L669.731,77.641 L669.231,77.494 L669.231,77.494 C669.229,77.493 669.226,77.492 669.223,77.492 L669.223,77.492 L668.706,77.369 L667.693,77.218 L666.697,77.186 L665.716,77.268 L664.752,77.461 L663.803,77.76 L662.87,78.164 L661.953,78.667 L661.052,79.265 L660.166,79.956 L659.295,80.736 L658.441,81.601 L657.601,82.547 L656.778,83.571 L655.969,84.669 L655.176,85.838 L654.399,87.074 L653.637,88.374 L652.891,89.733 L652.16,91.15 L651.445,92.62 L650.745,94.139 L650.061,95.704 L649.393,97.311 L648.741,98.958 L648.104,100.642 L647.484,102.358 L646.879,104.102 L646.003,106.769 L644.891,110.391 L643.848,114.075 L642.872,117.788 L641.965,121.506 L641.132,125.21 L640.552,127.955 L640.189,129.767 L639.841,131.552 L639.514,133.321 L639.202,135.056 L638.907,136.754 L638.632,138.422 L638.371,140.045 L638.126,141.618 L637.899,143.145 L637.688,144.617 L637.491,146.028 L637.31,147.374 L637.145,148.657 L636.994,149.868 L636.859,151.003 L636.737,152.057 L636.63,153.028 L636.538,153.912 L636.46,154.706 L636.396,155.406 L636.346,156.007 L636.31,156.507 L636.287,156.901 L636.281,157.054 C636.271,157.215 636.362,157.575 636.484,157.859 C636.607,158.143 636.715,158.243 636.726,158.082 L636.726,158.082" fill="#000000"/>
    <path d="M651.234,131.585 L652.708,131.502 L655.625,131.261 L658.497,130.897 L661.317,130.391 L664.105,129.798 L666.863,129.125 L669.598,128.388 L672.315,127.599 L675.017,126.762 L677.705,125.883 L680.383,124.964 L683.054,124.017 L687.066,122.586 L692.402,120.569 L694.99,119.282 L694.99,119.282 C695.064,119.252 695.02,118.912 694.892,118.523 C694.765,118.135 694.602,117.844 694.528,117.875 L691.814,118.776 L686.543,120.984 L682.581,122.566 L679.919,123.541 L677.245,124.468 L674.559,125.351 L671.858,126.187 L669.142,126.975 L666.409,127.714 L663.659,128.408 L660.893,129.066 L658.112,129.691 L655.329,130.331 L652.535,130.959 L651.13,131.259 C651.13,131.259 651.13,131.259 651.13,131.259 C651.112,131.261 651.12,131.336 651.149,131.426 C651.177,131.517 651.215,131.588 651.234,131.585 L651.234,131.585" fill="#000000"/>
    <path d="M742.72,73.709 L742.844,73.399 L743.08,72.799 L743.298,72.222 L743.499,71.669 L743.682,71.14 L743.847,70.634 L743.996,70.15 L744.128,69.688 L744.243,69.249 L744.343,68.831 L744.427,68.434 L744.496,68.057 L744.57,67.53 L744.617,66.887 L744.603,66.271 L744.502,65.559 L744.156,64.352 L743.627,63.255 L743.256,62.831 L742.925,62.63 L742.577,62.532 L742.197,62.513 L741.782,62.563 L741.331,62.678 L740.846,62.854 L740.327,63.089 L739.776,63.38 L739.196,63.725 L738.589,64.124 L737.956,64.574 L737.3,65.072 L736.622,65.614 L735.924,66.197 L735.208,66.821 L734.479,67.49 L733.737,68.195 L732.983,68.932 L732.22,69.701 L731.065,70.915 L729.515,72.628 L727.967,74.43 L726.439,76.306 L724.946,78.233 L723.505,80.192 L722.13,82.159 L720.84,84.119 L719.934,85.566 L719.364,86.518 L718.825,87.456 L718.317,88.377 L717.842,89.278 L717.402,90.155 L716.999,91.008 L716.635,91.834 L716.313,92.634 L716.033,93.402 L715.798,94.138 L715.609,94.843 L715.468,95.517 L715.376,96.17 L715.338,96.825 L715.367,97.562 L715.448,98.222 L715.448,98.222 C715.472,98.382 715.505,98.555 715.545,98.738 L715.545,98.738 L715.596,98.974 L716.043,100.54 L716.81,102.408 L717.389,103.371 L717.828,103.878 L718.233,104.218 L718.647,104.473 L719.084,104.672 L719.551,104.826 L720.05,104.941 L720.582,105.019 L721.145,105.065 L721.741,105.079 L722.366,105.064 L723.021,105.021 L723.704,104.952 L724.414,104.859 L725.148,104.743 L725.907,104.605 L726.688,104.447 L727.899,104.178 L729.578,103.766 L731.322,103.305 L733.118,102.808 L735.884,102.02 L739.644,100.962 L742.467,100.218 L744.327,99.77 L746.157,99.375 L747.944,99.046 L749.249,98.851 L750.098,98.747 L750.931,98.667 L751.745,98.613 L752.537,98.585 L753.308,98.585 L754.055,98.616 L754.777,98.677 L755.471,98.772 L756.137,98.901 L756.772,99.065 L757.374,99.267 L757.941,99.505 L758.471,99.782 L758.959,100.096 L759.403,100.445 L759.794,100.822 L760.123,101.213 L760.369,101.582 L760.498,101.845 L760.425,101.725 L760.273,101.383 L760.485,101.887 L760.648,102.371 L760.679,102.573 L760.72,102.865 L760.786,103.377 L760.846,104.087 L760.874,104.929 L760.855,105.851 L760.783,106.823 L760.656,107.827 L760.474,108.852 L760.237,109.891 L759.948,110.939 L759.607,111.993 L759.216,113.051 L758.777,114.111 L758.292,115.171 L757.761,116.228 L757.187,117.282 L756.571,118.334 L755.916,119.382 L755.223,120.425 L754.494,121.463 L753.731,122.494 L752.932,123.513 L752.102,124.522 L750.801,126.019 L748.974,127.978 L747.047,129.875 L745.037,131.716 L742.955,133.485 L740.815,135.18 L738.626,136.783 L736.404,138.292 L734.16,139.698 L731.91,141.004 L729.694,142.278 L727.542,143.566 L725.958,144.481 L724.927,145.085 L723.909,145.66 L722.907,146.21 L721.923,146.73 L720.957,147.218 L720.011,147.675 L719.086,148.098 L718.185,148.486 L717.308,148.837 L716.458,149.152 L715.635,149.429 L714.842,149.667 L714.08,149.865 L713.712,149.949 L713.712,149.949 C713.425,149.993 713.555,151.172 714.004,152.582 C714.452,153.992 715.049,155.1 715.337,155.056 C715.337,155.056 715.337,155.056 715.337,155.056 L715.727,155.023 L716.532,154.931 L717.368,154.804 L718.235,154.643 L719.131,154.449 L720.054,154.221 L721.003,153.961 L721.975,153.669 L722.97,153.346 L723.985,152.99 L725.019,152.604 L726.069,152.186 L727.132,151.734 L728.211,151.254 L729.835,150.438 L732.023,149.229 L734.196,147.801 L736.359,146.215 L738.524,144.548 L740.68,142.818 L742.812,141.026 L744.91,139.183 L746.957,137.283 L748.94,135.337 L750.844,133.341 L752.658,131.312 L753.948,129.763 L754.773,128.718 L755.568,127.667 L756.332,126.613 L757.061,125.552 L757.755,124.484 L758.412,123.41 L759.03,122.331 L759.607,121.247 L760.142,120.158 L760.635,119.07 L761.082,117.978 L761.482,116.882 L761.833,115.782 L762.134,114.677 L762.384,113.567 L762.579,112.447 L762.718,111.313 L762.797,110.154 L762.81,108.955 L762.75,107.685 L762.597,106.296 L762.321,104.724 L761.889,102.946 L761.313,101.095 L760.731,99.544 L760.517,99.038 L760.517,99.038 C760.467,98.918 760.416,98.804 760.365,98.696 L760.365,98.696 L760.009,97.97 L759.507,97.102 L759.036,96.441 L758.566,95.9 L758.08,95.441 L757.571,95.045 L757.033,94.703 L756.466,94.41 L755.87,94.161 L755.245,93.953 L754.592,93.785 L753.911,93.655 L753.203,93.559 L752.471,93.497 L751.714,93.466 L750.935,93.466 L750.135,93.494 L749.315,93.55 L748.477,93.63 L747.622,93.734 L746.311,93.931 L744.517,94.261 L742.683,94.657 L740.818,95.106 L737.992,95.85 L734.23,96.907 L731.465,97.693 L729.672,98.19 L727.932,98.651 L726.257,99.063 L725.051,99.331 L724.273,99.488 L723.519,99.625 L722.79,99.742 L722.088,99.836 L721.413,99.906 L720.768,99.95 L720.154,99.967 L719.573,99.955 L719.027,99.913 L718.519,99.84 L718.05,99.735 L717.625,99.598 L717.248,99.432 L716.929,99.244 L716.686,99.061 L716.564,98.962 L716.672,99.23 L717.061,100.315 L717.227,101.003 L717.174,100.765 L717.271,101.281 L717.282,101.476 L717.255,101.206 L717.273,100.757 L717.344,100.213 L717.468,99.602 L717.642,98.939 L717.865,98.23 L718.133,97.48 L718.446,96.693 L718.799,95.871 L719.192,95.017 L719.622,94.136 L720.088,93.231 L720.586,92.303 L721.117,91.356 L721.674,90.389 L722.561,88.91 L723.826,86.902 L725.168,84.863 L726.573,82.819 L728.021,80.785 L729.5,78.783 L730.99,76.831 L732.477,74.953 L733.582,73.606 L734.308,72.74 L735.026,71.907 L735.733,71.109 L736.427,70.349 L737.104,69.623 L737.764,68.941 L738.406,68.307 L739.028,67.721 L739.628,67.188 L740.202,66.708 L740.748,66.282 L741.267,65.917 L741.754,65.616 L742.209,65.38 L742.628,65.212 L743.008,65.114 L743.345,65.085 L743.631,65.124 L743.847,65.208 L743.934,65.225 L743.768,64.727 L743.686,64.285 L743.746,64.507 L743.787,65.001 L743.778,65.647 L743.736,66.208 L743.69,66.615 L743.629,67.051 L743.554,67.513 L743.464,68.004 L743.359,68.522 L743.238,69.067 L743.102,69.642 L742.95,70.245 L742.783,70.877 L742.599,71.538 L742.398,72.228 L742.292,72.585 C742.257,72.685 742.324,73.019 742.442,73.329 C742.561,73.639 742.685,73.809 742.72,73.709 L742.72,73.709" fill="#000000"/>
    <path d="M529.053,44.844 L529.077,44.341 L529.135,43.315 L529.237,41.726 L529.39,39.526 L529.543,37.249 L529.676,34.912 L529.769,32.531 L529.802,30.123 L529.755,27.704 L529.654,25.883 L529.549,24.664 L529.411,23.45 L529.237,22.232 L529.021,21.006 L528.757,19.765 L528.438,18.502 L528.057,17.216 L527.611,15.921 L527.104,14.65 L526.547,13.437 L525.946,12.296 L525.301,11.227 L524.609,10.221 L523.865,9.273 L523.063,8.377 L522.635,7.943 L522.635,7.943 C522.633,7.941 522.63,7.938 522.627,7.936 L522.627,7.936 L522.365,7.686 L521.813,7.206 L521.241,6.764 L520.651,6.36 L520.043,5.994 L519.418,5.664 L518.778,5.37 L518.121,5.11 L517.45,4.883 L516.763,4.688 L516.063,4.524 L515.35,4.389 L514.624,4.284 L513.886,4.206 L512.76,4.141 L511.222,4.144 L509.649,4.243 L508.048,4.432 L506.423,4.703 L504.782,5.05 L503.13,5.47 L501.473,5.952 L499.816,6.489 L498.166,7.075 L496.528,7.702 L494.909,8.365 L493.313,9.055 L491.748,9.767 L490.22,10.497 L488.734,11.235 L487.296,11.974 L485.911,12.707 L484.586,13.427 L483.327,14.128 L482.139,14.802 L481.028,15.443 L480.001,16.044 L479.064,16.599 L478.423,16.982 L478.027,17.218 L477.839,17.331 L477.839,17.331 C477.839,17.331 477.839,17.331 477.839,17.331 L477.839,17.331 L476.477,18.153 L473.769,19.84 L471.084,21.583 L468.423,23.382 L465.789,25.24 L463.184,27.152 L460.606,29.117 L458.059,31.133 L455.543,33.198 L453.062,35.318 L450.615,37.486 L448.203,39.7 L445.828,41.96 L443.492,44.264 L441.196,46.616 L438.942,49.01 L436.73,51.446 L434.562,53.921 L432.439,56.436 L430.363,58.99 L428.336,61.582 L426.359,64.21 L424.432,66.873 L422.557,69.57 L420.736,72.299 L418.97,75.061 L417.261,77.854 L415.61,80.677 L414.018,83.528 L412.486,86.406 L411.017,89.31 L409.61,92.24 L408.269,95.194 L406.994,98.172 L405.786,101.172 L404.647,104.193 L403.578,107.235 L402.582,110.295 L401.658,113.373 L400.809,116.469 L400.035,119.581 L399.339,122.708 L398.721,125.85 L398.184,129.006 L397.728,132.174 L397.355,135.356 L397.067,138.549 L396.864,141.754 L396.75,144.971 L396.724,148.199 L396.789,151.441 L396.948,154.696 L397.201,157.967 L397.552,161.257 L398.004,164.568 L398.561,167.907 L399.226,171.277 L400.004,174.681 L400.899,178.12 L401.913,181.583 L403.046,185.056 L404.292,188.518 L405.645,191.948 L407.101,195.332 L407.888,197.051 L407.888,197.051 C407.898,197.073 407.908,197.095 407.918,197.117 L407.918,197.117 L408.371,198.076 L409.302,199.989 L410.238,201.834 L411.174,203.59 L412.109,205.257 L413.048,206.838 L413.99,208.331 L414.94,209.74 L415.899,211.067 L416.869,212.314 L417.855,213.485 L418.858,214.582 L419.882,215.609 L420.929,216.569 L422.004,217.466 L423.11,218.302 L424.248,219.081 L425.424,219.806 L426.639,220.48 L427.897,221.105 L429.201,221.684 L430.554,222.22 L431.959,222.716 L433.419,223.173 L434.937,223.595 L436.516,223.984 L438.16,224.344 L439.87,224.675 L441.65,224.981 L443.503,225.264 L445.432,225.528 L447.441,225.774 L448.475,225.891 L448.475,225.891 C448.476,225.891 448.476,225.891 448.477,225.891 L448.477,225.891 L449.309,225.973 L450.967,226.079 L452.611,226.109 L454.238,226.064 L455.848,225.945 L457.44,225.756 L459.012,225.496 L460.565,225.171 L462.097,224.779 L463.608,224.323 L465.095,223.805 L466.559,223.226 L467.999,222.589 L469.413,221.894 L470.8,221.144 L472.16,220.34 L473.492,219.484 L474.795,218.579 L476.067,217.625 L477.309,216.624 L478.519,215.579 L479.696,214.491 L480.839,213.362 L481.948,212.193 L483.021,210.989 L484.058,209.749 L485.058,208.474 L486.02,207.167 L486.942,205.83 L487.824,204.463 L488.665,203.069 L489.464,201.65 L490.22,200.207 L490.933,198.741 L491.6,197.255 L492.222,195.75 L492.797,194.228 L493.325,192.691 L493.806,191.142 L494.237,189.58 L494.617,188.007 L494.947,186.424 L495.224,184.832 L495.448,183.232 L495.618,181.624 L495.732,180.009 L495.79,178.385 L495.789,176.752 L495.728,175.107 L495.605,173.446 L495.416,171.757 L495.153,170.028 L494.81,168.244 L494.375,166.391 L493.841,164.468 L493.206,162.504 L492.484,160.562 L491.697,158.699 L490.862,156.945 L489.984,155.298 L489.061,153.744 L488.088,152.265 L487.059,150.848 L485.97,149.485 L485.393,148.811 L485.393,148.811 C485.378,148.794 485.363,148.778 485.349,148.763 L485.349,148.763 L485.184,148.594 L484.695,148.203 L484.107,147.844 L483.422,147.505 L482.641,147.178 L481.768,146.863 L480.811,146.559 L479.777,146.269 L478.677,145.994 L477.518,145.735 L476.31,145.492 L475.06,145.27 L473.779,145.07 L472.476,144.894 L471.159,144.743 L469.838,144.62 L468.521,144.527 L467.218,144.465 L465.938,144.437 L464.691,144.448 L463.484,144.495 L462.328,144.581 L461.231,144.713 L460.203,144.889 L459.251,145.11 L458.385,145.378 L457.795,145.61 L457.433,145.783 L457.099,145.97 L456.791,146.17 L456.512,146.385 L456.261,146.614 L456.041,146.859 L455.85,147.123 L455.692,147.407 L455.566,147.717 L455.473,148.063 L455.417,148.468 L455.403,148.756 L455.403,148.756 C455.401,148.799 455.402,148.846 455.403,148.896 L455.403,148.896 L455.41,149.093 L455.501,149.887 L456.057,152.038 L456.998,154.127 L457.472,154.704 L457.797,154.915 L458.105,155.017 L458.425,155.058 L458.767,155.051 L459.133,155.002 L459.523,154.915 L459.935,154.794 L460.368,154.642 L460.82,154.461 L461.528,154.142 L462.517,153.644 L463.541,153.081 L464.578,152.473 L465.612,151.846 L466.622,151.223 L467.59,150.626 L468.276,150.209 L468.71,149.951 L469.122,149.713 L469.509,149.496 L469.693,149.397 L469.693,149.397 L471.476,148.439 L475.014,146.483 L480.277,143.495 L485.529,140.5 L489.048,138.533 L492.599,136.614 L496.194,134.761 L498.013,133.866 L498.013,133.866 C498.209,133.774 498.087,132.849 497.741,131.801 C497.394,130.752 496.955,129.976 496.759,130.068 L494.915,130.894 L491.27,132.61 L487.672,134.392 L484.106,136.223 L478.787,139.016 L473.462,141.809 L469.883,143.638 L468.08,144.536 L468.08,144.536 C468.08,144.536 468.08,144.536 468.08,144.536 L468.08,144.536 L467.892,144.631 L467.497,144.836 L467.078,145.063 L466.638,145.308 L465.944,145.704 L464.966,146.27 L463.946,146.861 L462.905,147.453 L461.861,148.026 L460.835,148.562 L459.847,149.035 L459.143,149.335 L458.696,149.503 L458.27,149.644 L457.869,149.753 L457.494,149.829 L457.15,149.87 L456.841,149.873 L456.576,149.839 L456.366,149.777 L456.248,149.729 L456.358,149.945 L457.019,151.567 L457.383,153.138 L457.376,153.235 L457.37,153.038 L457.37,153.177 L457.365,153.151 L457.385,152.948 L457.443,152.716 L457.538,152.476 L457.669,152.237 L457.837,152.005 L458.038,151.782 L458.272,151.57 L458.538,151.368 L458.833,151.178 L459.157,151 L459.506,150.832 L460.079,150.6 L460.929,150.329 L461.866,150.102 L462.881,149.919 L463.964,149.773 L465.105,149.663 L466.297,149.591 L467.529,149.554 L468.793,149.55 L470.08,149.576 L471.38,149.634 L472.685,149.721 L473.986,149.836 L475.273,149.977 L476.538,150.142 L477.772,150.33 L478.964,150.538 L480.107,150.768 L481.192,151.016 L482.207,151.279 L483.145,151.556 L483.994,151.844 L484.745,152.141 L485.385,152.442 L485.895,152.735 L486.26,153.006 L486.424,153.17 L486.38,153.122 L486.897,153.713 L487.888,154.928 L488.796,156.153 L489.618,157.375 L490.35,158.578 L490.99,159.74 L491.537,160.844 L491.997,161.885 L492.391,162.887 L492.741,163.907 L493.063,165.002 L493.358,166.198 L493.62,167.491 L493.84,168.863 L494.011,170.296 L494.13,171.772 L494.193,173.279 L494.201,174.807 L494.154,176.352 L494.051,177.908 L493.894,179.47 L493.683,181.036 L493.418,182.601 L493.102,184.165 L492.734,185.724 L492.315,187.275 L491.847,188.817 L491.33,190.346 L490.765,191.861 L490.152,193.361 L489.494,194.843 L488.791,196.306 L488.044,197.748 L487.254,199.167 L486.422,200.561 L485.549,201.929 L484.635,203.268 L483.682,204.578 L482.69,205.855 L481.661,207.099 L480.596,208.306 L479.494,209.475 L478.358,210.604 L477.187,211.692 L475.984,212.738 L474.749,213.739 L473.483,214.694 L472.187,215.601 L470.862,216.458 L469.509,217.263 L468.129,218.015 L466.722,218.712 L465.29,219.352 L463.834,219.933 L462.354,220.454 L460.851,220.913 L459.327,221.308 L457.783,221.637 L456.218,221.897 L454.634,222.088 L453.032,222.208 L451.414,222.255 L449.779,222.227 L448.129,222.124 L447.296,222.042 L447.298,222.043 L446.265,221.927 L444.26,221.684 L442.335,221.423 L440.486,221.141 L438.711,220.837 L437.006,220.508 L435.369,220.151 L433.798,219.765 L432.288,219.346 L430.838,218.893 L429.444,218.402 L428.104,217.872 L426.815,217.301 L425.573,216.685 L424.378,216.024 L423.225,215.314 L422.112,214.554 L421.036,213.741 L419.995,212.875 L418.986,211.952 L418.007,210.972 L417.054,209.932 L416.125,208.832 L415.217,207.669 L414.327,206.442 L413.453,205.148 L412.589,203.784 L411.734,202.348 L410.883,200.836 L410.033,199.243 L409.179,197.565 L408.308,195.777 L407.855,194.817 L407.885,194.882 L407.23,193.459 L405.966,190.541 L404.816,187.65 L403.771,184.773 L402.823,181.892 L401.965,178.989 L401.192,176.049 L400.504,173.067 L399.903,170.043 L399.389,166.984 L398.964,163.896 L398.63,160.786 L398.385,157.659 L398.231,154.52 L398.167,151.374 L398.191,148.224 L398.303,145.072 L398.501,141.922 L398.785,138.775 L399.152,135.634 L399.603,132.499 L400.135,129.373 L400.747,126.257 L401.438,123.152 L402.207,120.06 L403.051,116.981 L403.97,113.918 L404.962,110.872 L406.026,107.843 L407.16,104.833 L408.363,101.843 L409.634,98.874 L410.971,95.927 L412.373,93.003 L413.838,90.104 L415.365,87.23 L416.953,84.384 L418.6,81.565 L420.305,78.775 L422.066,76.014 L423.882,73.283 L425.752,70.585 L427.674,67.921 L429.647,65.291 L431.669,62.696 L433.739,60.137 L435.855,57.615 L438.016,55.131 L440.221,52.687 L442.469,50.284 L444.758,47.923 L447.085,45.602 L449.45,43.324 L451.853,41.093 L454.291,38.907 L456.763,36.77 L459.266,34.675 L461.8,32.63 L464.364,30.637 L466.957,28.695 L469.577,26.804 L472.22,24.962 L474.889,23.176 L477.58,21.446 L478.934,20.602 L478.934,20.602 L479.121,20.487 L479.515,20.244 L480.152,19.851 L481.083,19.278 L482.102,18.656 L483.204,17.992 L484.382,17.293 L485.631,16.566 L486.946,15.819 L488.319,15.057 L489.746,14.289 L491.22,13.521 L492.736,12.76 L494.286,12.009 L495.866,11.279 L497.47,10.577 L499.092,9.909 L500.725,9.283 L502.366,8.706 L504.006,8.185 L505.641,7.726 L507.263,7.333 L508.868,7.017 L510.449,6.784 L512.002,6.641 L513.519,6.596 L514.631,6.63 L515.357,6.686 L516.071,6.77 L516.773,6.884 L517.46,7.026 L518.133,7.2 L518.79,7.404 L519.431,7.641 L520.055,7.909 L520.66,8.21 L521.247,8.545 L521.813,8.914 L522.359,9.318 L522.885,9.759 L523.146,9.998 L523.138,9.99 L523.533,10.377 L524.28,11.183 L524.957,12.018 L525.564,12.87 L526.101,13.73 L526.569,14.584 L526.973,15.427 L527.326,16.269 L527.641,17.139 L527.929,18.066 L528.192,19.058 L528.428,20.112 L528.634,21.213 L528.81,22.352 L528.954,23.519 L529.069,24.701 L529.191,26.508 L529.27,28.953 L529.269,31.405 L529.207,33.842 L529.106,36.245 L528.984,38.592 L528.862,40.865 L528.781,42.509 L528.738,43.571 L528.72,44.09 C528.715,44.216 528.785,44.487 528.877,44.695 C528.969,44.903 529.048,44.97 529.053,44.844 L529.053,44.844" fill="#000000"/>
  </g>
</svg>
